<?xml version="1.0" encoding="utf-8"?>
<!-- Generator: Adobe Illustrator 21.0.2, SVG Export Plug-In . SVG Version: 6.00 Build 0)  -->
<svg version="1.1" id="Ebene_1" xmlns="http://www.w3.org/2000/svg" xmlns:xlink="http://www.w3.org/1999/xlink" x="0px" y="0px"
	 viewBox="0 0 90 74" style="enable-background:new 0 0 90 74;" xml:space="preserve">
<style type="text/css">
	.st0{clip-path:url(#SVGID_2_);fill:#A7A9AC;}
	.st1{clip-path:url(#SVGID_2_);fill:#FFFFFF;}
	.st2{clip-path:url(#SVGID_2_);fill:#B3CB37;}
	.st3{clip-path:url(#SVGID_2_);fill:#EC126A;}
	.st4{clip-path:url(#SVGID_2_);fill:#EB008B;}
	.st5{clip-path:url(#SVGID_2_);fill:#F89C1E;}
	.st6{fill:#1E2A5A;}
	.st7{fill:#FFFFFF;}
	.st8{font-family:'DINOT-Bold','NotoSans-Bold', 'Arial Black', 'Arial Bold', Arial, sans-serif;}
	.st9{font-size:17.157px;}
</style>
<g>
	<defs>
		<rect id="SVGID_1_" y="0.9" width="90" height="73.1"/>
	</defs>
	<clipPath id="SVGID_2_">
		<use xlink:href="#SVGID_1_"  style="overflow:visible;"/>
	</clipPath>
	<path class="st0" d="M1.9,50.5c0,0-1.9,0-1.9,1.9v19.7c0,0,0,1.9,1.9,1.9h86.2c0,0,1.9,0,1.9-1.9V52.4c0,0,0-1.9-1.9-1.9H1.9z"/>
	<path class="st1" d="M79.1,66.3c2.2,0,4-1.8,4-4c0-2.2-1.8-4-4-4c-2.2,0-4,1.8-4,4C75.2,64.5,76.9,66.3,79.1,66.3"/>
	<path class="st2" d="M26.3,8.1c-4.7,4.3-7.9,10.3-8.6,17.1C17,32,18.9,38.5,22.6,43.7l3.8-2.5c-2.5-3.1-4.1-7-4.2-11.4
		C22,23,25.5,16.8,31,13.3c0,0-0.1,0-0.1,0.1L26.3,8.1z"/>
	<path class="st2" d="M32.1,12.7c-0.1,0-0.1,0.1-0.2,0.1C32,12.7,32,12.7,32.1,12.7"/>
	<path class="st2" d="M33.2,12.1c-0.1,0-0.1,0.1-0.2,0.1C33.1,12.2,33.1,12.1,33.2,12.1"/>
	<path class="st3" d="M71.9,22.6c-1.4-6.7-5.2-12.3-10.3-16.1l0,0c1,0.7,1.9,1.6,2.8,2.4l-7.8,8.6c-0.1-0.1-0.1-0.2-0.2-0.2
		c2.6,3.1,4.2,7.1,4.4,11.5c0.1,3.4-0.7,6.6-2.2,9.4l8.9,5.5C71.7,37.8,73.5,30.2,71.9,22.6"/>
	<path class="st4" d="M54.4,15.1c0.5,0.4,0.9,0.8,1.3,1.3C55.3,16,54.8,15.5,54.4,15.1L54.4,15.1z"/>
	<path class="st5" d="M64.4,8.9c-0.9-0.9-1.8-1.7-2.8-2.4c-4.8-3.6-10.9-5.7-17.4-5.5C37.3,1.1,31,3.8,26.3,8.1l0,0l4.6,5.2
		c0,0,0.1,0,0.1-0.1c0.3-0.2,0.6-0.4,0.9-0.6c0.1,0,0.1-0.1,0.2-0.1c0.3-0.2,0.6-0.3,0.9-0.5c0.1,0,0.1-0.1,0.2-0.1
		c2.3-1.1,5-1.8,7.7-1.8c5.2-0.1,9.9,1.7,13.5,4.9c0.5,0.4,0.9,0.8,1.3,1.3c0,0,0,0,0,0.1c0.2,0.2,0.4,0.4,0.5,0.6
		c0,0.1,0.1,0.1,0.1,0.2c0.1,0.1,0.1,0.2,0.2,0.2L64.4,8.9z"/>
</g>
<polygon class="st6" points="48,37 51.9,33.6 26.8,18.6 "/>
<text transform="matrix(1 0 0 1 7.8452 68.4824)" class="st7 st8 st9">F</text>
</svg>
