<svg xmlns="http://www.w3.org/2000/svg" xmlns:xlink="http://www.w3.org/1999/xlink" viewBox="0 0 100 9.51"><defs><style>.cls-1{fill:none;}.cls-2{fill:#e67278;}.cls-3{fill:#fff;}.cls-4{fill:#c0cc17;}.cls-5{fill:#e50060;}.cls-6{fill:#447fc0;}.cls-7{fill:#f89c1c;}.cls-8{clip-path:url(#clip-path);}.cls-9{fill:#ec0f69;}.cls-10{fill:#f2c008;}.cls-11{fill:#b3cb38;}.cls-12{fill:#808184;}</style><clipPath id="clip-path"><rect class="cls-1" width="100" height="9.51"/></clipPath></defs><title>Element 1</title><g id="Ebene_2" data-name="Ebene 2"><g id="Ebene_1-2" data-name="Ebene 1"><rect class="cls-2" x="12.91" width="9.62" height="9.51"/><rect class="cls-3" x="17.1" y="2.04" width="1.37" height="2.65"/><rect class="cls-3" x="17.1" y="5.98" width="1.37" height="1.43"/><rect class="cls-4" x="25.82" width="9.62" height="4.76"/><rect class="cls-5" x="25.82" y="4.62" width="9.62" height="4.89"/><rect class="cls-3" x="28.58" y="1.95" width="1.37" height="2.65"/><rect class="cls-3" x="28.58" y="5.89" width="1.37" height="1.43"/><rect class="cls-3" x="31.3" y="1.95" width="1.37" height="2.65"/><rect class="cls-3" x="31.3" y="5.89" width="1.37" height="1.43"/><rect class="cls-6" x="77.47" width="9.62" height="9.51"/><rect class="cls-3" x="80.1" y="2.56" width="1.44" height="4.39"/><rect class="cls-3" x="83.02" y="2.56" width="1.44" height="4.39"/><rect class="cls-7" x="64.56" width="9.62" height="9.51"/><g class="cls-8"><path class="cls-3" d="M70.23,1.79V5.46a1.08,1.08,0,0,1-.22.75.84.84,0,0,1-.64.23q-.84,0-.87-.92V1.79H67.12v3.7A1.89,1.89,0,0,0,67.73,7a2.37,2.37,0,0,0,1.63.53,2.73,2.73,0,0,0,1.19-.24,1.73,1.73,0,0,0,.77-.7,2.08,2.08,0,0,0,.27-1.08V1.79Z"/></g><rect class="cls-9" width="9.62" height="9.51"/><path class="cls-3" d="M6.87,1.8H5.44l.05,3.46H6.82ZM6.78,6.19H5.53V7.51H6.78ZM4.19,1.8H2.76l.05,3.46H4.13ZM4.09,6.19H2.85V7.51H4.09Z"/><rect class="cls-10" x="38.74" width="9.62" height="9.51"/><polygon class="cls-3" points="44.12 1.8 42.94 1.8 42.15 5.36 41.49 1.8 40.12 1.8 41.34 7.48 42.77 7.48 43.52 4.24 44.29 7.48 45.73 7.48 46.95 1.8 45.58 1.8 44.92 5.36 44.12 1.8"/><rect class="cls-11" x="51.65" width="9.62" height="9.51"/><polygon class="cls-3" points="55.99 5.83 59.06 1.95 60.03 2.69 56.07 7.69 53.13 4.65 54.01 3.8 55.99 5.83"/><rect class="cls-12" x="90.38" width="9.62" height="9.51"/><g class="cls-8"><path class="cls-3" d="M95.6,5.76V5.52A1.05,1.05,0,0,1,96,4.87l.31-.3a2.54,2.54,0,0,0,.51-.64,1.36,1.36,0,0,0,.15-.62,1.4,1.4,0,0,0-.45-1.11,2.21,2.21,0,0,0-2.54,0,1.48,1.48,0,0,0-.47,1.15h1.12a.68.68,0,0,1,.18-.48.61.61,0,0,1,.46-.17q.6,0,.6.65a.79.79,0,0,1-.11.41,2.44,2.44,0,0,1-.47.5,1.75,1.75,0,0,0-.48.63,2.3,2.3,0,0,0-.13.86Z"/></g><rect class="cls-3" x="94.62" y="6.46" width="0.98" height="1.05"/></g></g></svg>