<?xml version="1.0" encoding="utf-8"?>
<!-- Generator: Adobe Illustrator 21.0.2, SVG Export Plug-In . SVG Version: 6.00 Build 0)  -->
<svg version="1.1" id="Ebene_1" xmlns="http://www.w3.org/2000/svg" xmlns:xlink="http://www.w3.org/1999/xlink" x="0px" y="0px"
	 viewBox="0 0 50 30" style="enable-background:new 0 0 50 30;" xml:space="preserve">
<style type="text/css">
	.st0{fill:#0B2558;}
	.st1{fill:#FFFFFF;}
</style>
<g>
	<path class="st0" d="M44.7,15.4c0-0.1,0-0.3,0-0.4c0-4.9-4-8.9-8.9-8.9c-1.7,0-3.2,0.5-4.5,1.3C29.6,3.6,25.9,1,21.5,1
		c-5.9,0-10.7,4.8-10.7,10.7c0,0.2,0,0.5,0,0.7c-0.5-0.1-1-0.1-1.5-0.1c-4.9,0-8.9,4-8.9,8.9c0,4.9,4,8.9,8.9,8.9
		c0.5,0,1-0.1,1.5-0.1h32v0c3.8-0.3,6.8-3.5,6.8-7.4C49.6,19.2,47.6,16.4,44.7,15.4"/>
</g>
<polygon class="st1" points="25.6,23.3 27.1,22 17.9,16.5 "/>
<g>
	<path class="st1" d="M17.7,12.6c-1.7,1.6-2.9,3.8-3.2,6.3c-0.3,2.5,0.4,4.9,1.8,6.8l1.4-0.9c-0.9-1.1-1.5-2.6-1.5-4.2
		c-0.1-2.5,1.2-4.8,3.2-6.1c0,0,0,0,0,0L17.7,12.6z"/>
	<path class="st1" d="M31.7,12.9c-0.3-0.3-0.7-0.6-1-0.9c-1.8-1.3-4-2.1-6.4-2c-2.5,0.1-4.8,1.1-6.6,2.7l1.7,1.9c0,0,0,0,0,0
		c0.1-0.1,0.2-0.1,0.3-0.2c0,0,0,0,0.1,0c0.1-0.1,0.2-0.1,0.3-0.2c0,0,0,0,0.1,0c0.9-0.4,1.8-0.6,2.8-0.7c1.9-0.1,3.6,0.6,4.9,1.8
		c0.2,0.2,0.3,0.3,0.5,0.5c0,0,0,0,0,0c0.1,0.1,0.1,0.1,0.2,0.2c0,0,0,0,0.1,0.1c0,0,0,0.1,0.1,0.1L31.7,12.9z"/>
	<path class="st1" d="M28.8,16.1c0.9,1.1,1.5,2.6,1.5,4.1c0,1.3-0.3,2.4-0.8,3.5l3.3,2c1.5-2.2,2.2-4.9,1.6-7.8
		c-0.4-2-1.4-3.7-2.8-5"/>
</g>
</svg>
