<svg xmlns="http://www.w3.org/2000/svg" viewBox="0 0 113.54 69.45"><defs><style>.cls-1{fill:#fff;}.cls-2{fill:#c0cc19;}.cls-3{fill:#f59c00;}.cls-4{fill:#e60060;}</style></defs><title>Element 1</title><g id="Ebene_2" data-name="Ebene 2"><g id="Ebene_1-2" data-name="Ebene 1"><path class="cls-1" d="M98.83,57.36a2.26,2.26,0,0,1-2.47,2.27H93.15V55.09h3.21a2.26,2.26,0,0,1,2.47,2.27m4.11,11.94L99,61.88a4.64,4.64,0,0,0,3.18-4.52c0-2.88-2.11-5.27-5.65-5.27H89.75V69.3h3.4V62.44H95.6L99,69.3ZM82.87,60.7c0,3.31-.2,4.11-.86,4.84a2.85,2.85,0,0,1-2.18.92,2.9,2.9,0,0,1-2.2-.92C77,64.81,76.8,64,76.8,60.7s.17-4.11.83-4.84a2.9,2.9,0,0,1,2.2-.92,2.85,2.85,0,0,1,2.18.92c.66.72.86,1.52.86,4.84m3.4,0c0-3,0-5.13-1.74-6.87a6.83,6.83,0,0,0-9.42,0c-1.76,1.74-1.71,3.89-1.71,6.87s0,5.13,1.71,6.87a6.83,6.83,0,0,0,9.42,0c1.76-1.74,1.74-3.89,1.74-6.87M71.7,55.09v-3H59.19v3h4.55V69.3h3.4V55.09Zm-15.28-3H53V69.3h3.4ZM49,69.3V52.09h-3.4V62.63l-6.9-10.54h-3V69.3H39V58.74l6.9,10.57ZM28.74,60.7c0,3.31-.2,4.11-.86,4.84a2.84,2.84,0,0,1-2.18.92,2.9,2.9,0,0,1-2.2-.92c-.66-.72-.83-1.52-.83-4.84s.17-4.11.83-4.84a2.9,2.9,0,0,1,2.2-.92,2.84,2.84,0,0,1,2.18.92c.66.72.86,1.52.86,4.84m3.4,0c0-3,0-5.13-1.74-6.87a6.34,6.34,0,0,0-4.7-1.89A6.4,6.4,0,0,0,21,53.83c-1.76,1.74-1.71,3.89-1.71,6.87s0,5.13,1.71,6.87a6.4,6.4,0,0,0,4.73,1.89,6.34,6.34,0,0,0,4.7-1.89c1.76-1.74,1.74-3.89,1.74-6.87M15.79,69.3V52.09H12.44L7.91,61.4,3.35,52.09H0V69.3H3.4v-10L6.76,65.8h2.3l3.33-6.53v10Z"/><path class="cls-1" d="M113.54,48.62l-6.19-10.37,5.78-6.84H109l-6.15,7.49V31.41h-3.4V48.62h3.4V43.45l2.25-2.66,4.48,7.83Zm-21-11.94A2.26,2.26,0,0,1,90,39H86.83V34.41H90a2.26,2.26,0,0,1,2.47,2.27m4.11,11.94L92.73,41.2a4.64,4.64,0,0,0,3.18-4.52c0-2.88-2.11-5.27-5.66-5.27H83.43V48.62h3.4V41.76h2.45l3.4,6.87ZM76.55,40c0,3.31-.2,4.11-.86,4.84a2.84,2.84,0,0,1-2.18.92,2.9,2.9,0,0,1-2.2-.92c-.66-.73-.83-1.52-.83-4.84s.17-4.11.83-4.84a2.9,2.9,0,0,1,2.2-.92,2.84,2.84,0,0,1,2.18.92c.66.72.86,1.52.86,4.84M80,40c0-3,0-5.13-1.74-6.87a6.83,6.83,0,0,0-9.42,0C67,34.89,67.08,37,67.08,40s0,5.13,1.71,6.87a6.83,6.83,0,0,0,9.42,0C80,45.14,80,43,80,40M65.73,31.41H62.18L59.46,42.27,56.28,31.41H53.74L50.55,42.27,47.86,31.41H44.31L49,48.62H51.8L55,38.18l3.21,10.44h2.84Zm-22.3,3v-3H30.92v3h4.55V48.62h3.4V34.41ZM28.89,48.62v-3H20.81V41.44h6.88v-3H20.81v-4h8.08v-3H17.41V48.62Zm-15.55,0V31.41H9.94V42L3,31.41H0V48.62H3.4V38.06l6.9,10.57Z"/><path class="cls-1" d="M57.19,20.84V18.37H50.7v2.8h3.08v.6A3.43,3.43,0,0,1,53,24.13a3,3,0,0,1-2.33,1,2.83,2.83,0,0,1-2.18-.89c-.66-.73-.83-1.55-.83-4.86s.17-4.11.83-4.84a2.85,2.85,0,0,1,2.18-.92,3.88,3.88,0,0,1,3,1.48L56,12.79a6.65,6.65,0,0,0-5.34-2.2A6.38,6.38,0,0,0,46,12.47c-1.76,1.74-1.71,3.89-1.71,6.87s0,5.13,1.71,6.87a6.46,6.46,0,0,0,4.7,1.89,6.57,6.57,0,0,0,4.87-2c1.22-1.26,1.62-2.78,1.62-5.27M42.6,13.73v-3H30.09v3h4.55V27.95H38V13.73ZM24.46,16A2.26,2.26,0,0,1,22,18.28H18.78V13.73H22A2.26,2.26,0,0,1,24.46,16m4.11,11.94-3.89-7.42A4.64,4.64,0,0,0,27.86,16c0-2.88-2.1-5.27-5.65-5.27H15.37V27.95h3.4V21.08h2.45l3.4,6.87ZM9.11,16.1a2.29,2.29,0,0,1-2.52,2.35H3.4V13.73H6.59A2.31,2.31,0,0,1,9.11,16.1m3.4,0c0-2.93-2.15-5.37-5.75-5.37H0V27.95H3.4V21.47H6.76c3.6,0,5.75-2.44,5.75-5.37"/><polygon class="cls-1" points="83.73 23.55 86.27 21.34 69.91 11.52 83.73 23.55"/><path class="cls-2" d="M69.58,4.72a17.59,17.59,0,0,0-2.43,23.2l2.49-1.61a12.36,12.36,0,0,1,3-18.21l-.07,0Z"/><path class="cls-3" d="M94.41,5.21a18,18,0,0,0-24.83-.49l3,3.42.07,0,.6-.36.11-.06.61-.31.13-.07a12.68,12.68,0,0,1,13.81,2c.3.27.58.55.86.84l0,0,.34.39.09.11.13.16Z"/><path class="cls-4" d="M89.33,10.83a12.33,12.33,0,0,1,1.26,13.53l5.82,3.57a17.58,17.58,0,0,0-2-22.71"/></g></g></svg>