<?xml version="1.0" encoding="utf-8"?>
<!-- Generator: Adobe Illustrator 21.0.2, SVG Export Plug-In . SVG Version: 6.00 Build 0)  -->
<svg version="1.1" id="Ebene_1" xmlns="http://www.w3.org/2000/svg" xmlns:xlink="http://www.w3.org/1999/xlink" x="0px" y="0px"
	 viewBox="0 0 16 16" style="enable-background:new 0 0 16 16;" xml:space="preserve">
<style type="text/css">
	.st0{clip-path:url(#SVGID_2_);fill:#E50060;}
	.st1{fill:#6F6F6E;}
</style>
<g>
	<defs>
		<rect id="SVGID_1_" width="16" height="16"/>
	</defs>
	<clipPath id="SVGID_2_">
		<use xlink:href="#SVGID_1_"  style="overflow:visible;"/>
	</clipPath>
	<path class="st0" d="M13.1,2.3C12,1.4,12.4,0,12.4,0c-1.4,1.6-2.2,3.2-1.8,4.3c0.3,0.9-1.1,2.8-1.6,3.5c0-3.1-3.1-4.1-3.1-4.1
		s0.8,0.7-0.3,2.4C5.1,6.8,5.1,7.5,5.3,8h0.8c0-0.6,0.2-1.3,1-1.7c0,0,0.7,0.6,0.7,1.7h0.9h0.2h1.9c1-1.3,2-3,1.3-4
		c0,0,3.6,1.9,1.5,4h1.9C17.3,5,14.1,3,13.1,2.3"/>
</g>
<path class="st1" d="M1.1,12.6h4.6v2.3H1.1V12.6z M6.9,12.6h4.6v2.3H6.9V12.6z M12.6,12.6h2.3v2.3h-2.3V12.6z M1.1,9.1h2.3v2.3H1.1
	V9.1z M4.6,9.1h4.6v2.3H4.6V9.1z M10.3,9.1h4.6v2.3h-4.6V9.1z M0,8v1.1v3.4v2.3V16h16v-1.1v-2.3v-1.1V9.1V8H0z"/>
</svg>
