<?xml version="1.0" encoding="utf-8"?>
<!-- Generator: Adobe Illustrator 21.0.2, SVG Export Plug-In . SVG Version: 6.00 Build 0)  -->
<svg version="1.1" id="Ebene_1" xmlns="http://www.w3.org/2000/svg" xmlns:xlink="http://www.w3.org/1999/xlink" x="0px" y="0px"
	 viewBox="0 0 16 16" style="enable-background:new 0 0 16 16;" xml:space="preserve">
<style type="text/css">
	.st0{fill:#6F6F6E;}
	.st1{clip-path:url(#SVGID_2_);fill:#6F6F6E;}
</style>
<path class="st0" d="M1.2,1.2h3.9v3h9.7v10.6H1.2V1.2z M6.3,1.2h3.6V3H6.3V1.2z M11.1,1.2h3.7V3h-3.7V1.2z M0,16h16V0H0V16z"/>
<g>
	<defs>
		<rect id="SVGID_1_" width="16" height="16"/>
	</defs>
	<clipPath id="SVGID_2_">
		<use xlink:href="#SVGID_1_"  style="overflow:visible;"/>
	</clipPath>
	<path class="st1" d="M5.1,9.7C4.5,8.8,4.9,7.5,5.9,7c1-0.5,2.2-0.2,2.8,0.8c0.5,1,0.2,2.2-0.8,2.8C6.9,11.1,5.6,10.7,5.1,9.7
		 M13,12.3L9.8,10c0.4-0.9,0.4-1.9-0.1-2.8C8.8,5.7,6.9,5.1,5.3,5.9S3.2,8.7,4,10.3s2.8,2.1,4.4,1.3c0.3-0.1,0.5-0.3,0.7-0.5
		l3.2,2.3L13,12.3"/>
</g>
</svg>
