<?xml version="1.0" encoding="utf-8"?>
<!-- Generator: Adobe Illustrator 21.0.2, SVG Export Plug-In . SVG Version: 6.00 Build 0)  -->
<svg version="1.1" id="Ebene_1" xmlns="http://www.w3.org/2000/svg" xmlns:xlink="http://www.w3.org/1999/xlink" x="0px" y="0px"
	 viewBox="0 0 16 16" style="enable-background:new 0 0 16 16;" xml:space="preserve">
<style type="text/css">
	.st0{fill:#6F6F6E;}
</style>
<path class="st0" d="M0,16h16v-1.2H0V16z M14.9,11.4H16V9.1h-1.1V11.4z M1.1,8v2.3h1.1v2.3h1.1v-2.3h1.1V9.1H3.4V8H1.1z M8,6.9
	l0,2.3h1.1v2.3h1.2v-1.2h1.1V8H9.1V6.9H8z M0,3.4v3.4h2.3V5.7h1.1V3.4H0z M11.4,3.4v1.2h-1.1V3.4H9.1v2.3h1.1v1.1h2.3V8h1.1V6.9h1.1
	V5.7H16V3.4H11.4z M0,1.2h16V0H0V1.2z"/>
</svg>
