<?xml version="1.0" encoding="utf-8"?>
<!-- Generator: Adobe Illustrator 21.0.2, SVG Export Plug-In . SVG Version: 6.00 Build 0)  -->
<svg version="1.1" id="Ebene_1" xmlns="http://www.w3.org/2000/svg" xmlns:xlink="http://www.w3.org/1999/xlink" x="0px" y="0px"
	 viewBox="0 0 16 16" style="enable-background:new 0 0 16 16;" xml:space="preserve">
<style type="text/css">
	.st0{fill:#6F6F6E;}
	.st1{fill:#E50060;}
</style>
<path class="st0" d="M13.7,10.3l-1.1,2.3v1.1h1.1v1.1H2.3v-2.3H1.1v2.3V16h12.6h1.1v-2.3H16v-1.1l-1.1-2.3H13.7z M1.1,9.1h1.1v1.1
	H1.1V9.1z M0,11.4h3.4V8H0V11.4z M13.7,5.7h1.1v1.1h-1.1V5.7z M12.6,8H16V4.6h-3.4V8z M1.1,0v1.1v1.1H0v1.1l1.1,2.3h1.1l1.1-2.3V2.3
	H2.3V1.1h11.4v2.3h1.1V0H1.1z"/>
<polygon class="st1" points="10.7,4.5 11.5,5.3 8.9,8 11.5,10.7 10.7,11.5 8.1,8.8 5.4,11.5 4.6,10.7 7.2,8 4.6,5.3 5.4,4.5 8,7.2 
	"/>
</svg>
