<?xml version="1.0" encoding="utf-8"?>
<!-- Generator: Adobe Illustrator 21.0.2, SVG Export Plug-In . SVG Version: 6.00 Build 0)  -->
<svg version="1.1" id="Ebene_1" xmlns="http://www.w3.org/2000/svg" xmlns:xlink="http://www.w3.org/1999/xlink" x="0px" y="0px"
	 viewBox="0 0 16 16" style="enable-background:new 0 0 16 16;" xml:space="preserve">
<style type="text/css">
	.st0{fill:#E50060;}
	.st1{fill:#6F6F6E;}
</style>
<rect x="2.3" y="6.9" class="st0" width="1.1" height="1.1"/>
<rect x="2.3" y="9.1" class="st0" width="1.1" height="1.1"/>
<rect x="2.3" y="11.4" class="st0" width="1.1" height="1.1"/>
<rect x="2.3" y="4.6" class="st0" width="1.1" height="1.1"/>
<path class="st1" d="M6.9,10.3H8v1.1H6.9V10.3z M9.1,10.3h1.1v1.1H9.1V10.3z M11.4,10.3h1.1v1.1h-1.1V10.3z M6.9,8H8v1.1H6.9V8z
	 M9.1,8h1.1v1.1H9.1V8z M11.4,8h1.1v1.1h-1.1V8z M6.9,5.7H8v1.1H6.9V5.7z M9.1,5.7h1.1v1.1H9.1V5.7z M11.4,5.7h1.1v1.1h-1.1V5.7z
	 M12.6,3.4v1.1h-1.1V3.4h-1.1v1.1H9.1V3.4H8v1.1H6.9V3.4H5.7v9.1h8V3.4H12.6z M1.1,1.1h13.7v13.7H1.1V1.1z M0,16h16V0H0V16z"/>
</svg>
