<?xml version="1.0" encoding="utf-8"?>
<!-- Generator: Adobe Illustrator 21.0.2, SVG Export Plug-In . SVG Version: 6.00 Build 0)  -->
<svg version="1.1" id="Ebene_1" xmlns="http://www.w3.org/2000/svg" xmlns:xlink="http://www.w3.org/1999/xlink" x="0px" y="0px"
	 viewBox="0 0 16 16" style="enable-background:new 0 0 16 16;" xml:space="preserve">
<style type="text/css">
	.st0{fill:#E50060;}
	.st1{fill:#6F6F6E;}
</style>
<rect x="2.3" y="12.6" class="st0" width="3.4" height="1.1"/>
<rect x="6.9" y="6.9" class="st0" width="3.4" height="1.1"/>
<path class="st1" d="M6.9,13.7h2.3v-1.1H6.9V13.7z M1.1,11.4h9.1v3.4H1.1V11.4z M0,10.3v1v0.2v3.4V16h11.4v-1.1v-3.4v-0.3v-0.9H0z
	 M11.4,8h2.3V6.9h-2.3V8z M4.6,4.6v1.1V8h1.1V5.7h9.1v3.4h-1.1v1.1H16V4.6H4.6z M0,0v1.1v3.4v1.1h1.1V4.6V1.1h9.1v1.1v1.1h1.1V2.3
	V1.1V0H0z"/>
</svg>
