<?xml version="1.0" encoding="utf-8"?>
<!-- Generator: Adobe Illustrator 21.0.2, SVG Export Plug-In . SVG Version: 6.00 Build 0)  -->
<svg version="1.1" id="Ebene_1" xmlns="http://www.w3.org/2000/svg" xmlns:xlink="http://www.w3.org/1999/xlink" x="0px" y="0px"
	 viewBox="0 0 16 16" style="enable-background:new 0 0 16 16;" xml:space="preserve">
<style type="text/css">
	.st0{fill:#C6C6C5;}
	.st1{fill:#0B2558;}
</style>
<polygon class="st0" points="2.6,9.1 8,16 8.8,14.6 3.4,7.8 "/>
<polygon class="st0" points="4.6,5.7 3.8,7.2 9.1,14.1 10,12.6 "/>
<polygon class="st0" points="6.8,1.9 6,3.3 11.4,10.2 12.3,8.8 "/>
<polygon class="st0" points="5.8,3.7 4.9,5.2 10.3,12.1 11.1,10.8 "/>
<polygon class="st0" points="7.9,0 7.1,1.4 12.5,8.3 13.4,6.8 "/>
<polygon class="st1" points="4.9,5.2 12.5,8.3 13.4,6.8 5.8,3.7 "/>
<polygon class="st1" points="4.6,5.7 3.8,7.2 11.3,10.4 12.3,8.8 "/>
<polygon class="st1" points="2.6,9.1 10.2,12.3 11.1,10.8 3.5,7.6 "/>
</svg>
